<svg xml:space="preserve" viewBox="154.81052631578947 133.76 2290.492105263158 1464.32" version="1.1" xmlns:xlink="http://www.w3.org/1999/xlink" xmlns="http://www.w3.org/2000/svg" style="max-height: 500px" width="2290.492105263158" height="1464.32">
<desc>Created with Fabric.js 3.6.6</desc>
<defs>
</defs>
<g transform="matrix(0 0.09 -0.2 0 4.93 -35.66)">
<path stroke-linecap="round" d="m 0 0 l 57.952755 0 l 0 0 c 32.006428 -1.4055393e-14 57.952755 23.203636 57.952755 51.82677 c 0 28.623135 -25.946327 51.82677 -57.952755 51.82677 l -57.952755 0 z" transform="translate(-57.95, -51.83)" style="stroke: rgb(0,0,0); stroke-opacity: 0; stroke-width: 8; stroke-dasharray: none; stroke-linecap: butt; stroke-dashoffset: 0; stroke-linejoin: miter; stroke-miterlimit: 4; fill: rgb(255,255,255); fill-rule: nonzero; opacity: 1;"/>
</g>
<g transform="matrix(0 0.29 -0.2 0 9.1 -22.83)">
<path stroke-linecap="round" d="m 0 14.960629 l 89.732285 0 l 0 -14.960629 l 29.921257 29.921259 l -29.921257 29.921259 l 0 -14.9606285 l -89.732285 0 z" transform="translate(-59.83, -29.92)" style="stroke: rgb(189,189,189); stroke-width: 8; stroke-dasharray: none; stroke-linecap: butt; stroke-dashoffset: 0; stroke-linejoin: miter; stroke-miterlimit: 10; fill: rgb(220,220,218); fill-rule: evenodd; opacity: 1;"/>
</g>
<g transform="matrix(-0.09 8.81 -9.06 -0.1 2008.07 912.88)">
<path stroke-linecap="round" d="m 0 14.960629 l 89.732285 0 l 0 -14.960629 l 29.921257 29.921259 l -29.921257 29.921259 l 0 -14.9606285 l -89.732285 0 z" transform="translate(-59.83, -29.92)" style="stroke: rgb(0,0,0); stroke-width: 8; stroke-dasharray: ; stroke-linecap: butt; stroke-dashoffset: 0; stroke-linejoin: round; stroke-miterlimit: 10; fill: rgb(46,46,46); fill-rule: evenodd; opacity: 1;"/>
</g>
<g style="" transform="matrix(60.12 0 0 56.56 848.68 889.99)">
		<text style="stroke: none; stroke-width: 1; stroke-dasharray: none; stroke-linecap: butt; stroke-dashoffset: 0; stroke-linejoin: miter; stroke-miterlimit: 4; fill: rgb(61,61,61); fill-rule: nonzero; opacity: 1; white-space: pre;" font-weight="bold" font-style="normal" font-size="36" font-family="'Oswald', sans-serif" xml:space="preserve"><tspan style="stroke-width: 1; font-family: 'Lucida Console', Monaco, monospace; font-style: normal;" y="11.31" x="-11.21">M</tspan></text>
</g>
</svg>